<svg xmlns="http://www.w3.org/2000/svg" width="33" height="33" viewBox="0 0 33 33">
  <path id="Subtraction_5" data-name="Subtraction 5" d="M16.5,33A16.5,16.5,0,0,1,4.833,4.833,16.5,16.5,0,0,1,28.168,28.168,16.393,16.393,0,0,1,16.5,33Zm4.389-18.043c2.265,0,2.265,2.147,2.265,3.714V25.5H27.5l0-7.7c0-3.466-.632-6.673-5.218-6.673a4.6,4.6,0,0,0-4.122,2.265H18.1V11.472H13.927V25.5h4.351V18.554C18.277,16.776,18.588,14.957,20.889,14.957ZM6.842,11.472V25.5H11.2V11.472ZM9.017,4.49A2.534,2.534,0,1,0,11.54,7.013,2.526,2.526,0,0,0,9.017,4.49Z" fill="#2ecc71"/>
</svg>
