<svg xmlns="http://www.w3.org/2000/svg" width="33" height="33" viewBox="0 0 33 33">
  <path id="Subtraction_3" data-name="Subtraction 3" d="M16.5,33A16.5,16.5,0,0,1,4.833,4.833,16.5,16.5,0,0,1,28.168,28.168,16.393,16.393,0,0,1,16.5,33ZM11.982,5.53a2.153,2.153,0,0,0-2.15,2.151V26.32a2.153,2.153,0,0,0,2.15,2.15H22.019a2.153,2.153,0,0,0,2.15-2.15V7.681a2.153,2.153,0,0,0-2.15-2.151ZM17,27.036A1.434,1.434,0,1,1,18.434,25.6,1.435,1.435,0,0,1,17,27.036Zm4.48-4.3H12.52a.538.538,0,0,1-.538-.537V8.218a.538.538,0,0,1,.538-.537h8.96a.538.538,0,0,1,.538.537V22.2A.538.538,0,0,1,21.48,22.735Z" fill="#2ecc71"/>
</svg>
