<svg xmlns="http://www.w3.org/2000/svg" width="33" height="33" viewBox="0 0 33 33">
  <path id="Subtraction_4" data-name="Subtraction 4" d="M16.5,33A16.5,16.5,0,0,1,4.833,4.833,16.5,16.5,0,0,1,28.168,28.168,16.393,16.393,0,0,1,16.5,33ZM17,5.788a11.212,11.212,0,1,0,6.122,20.605,1.087,1.087,0,0,0,.251-1.6l-.46-.562a1.087,1.087,0,0,0-.844-.4,1.063,1.063,0,0,0-.575.168A8.319,8.319,0,1,1,17,8.681a9.275,9.275,0,0,1,5.857,1.881,6.654,6.654,0,0,1,2.462,5.352c0,1.7-.922,3.6-2.63,3.785a.7.7,0,0,1-.565-.217c-.181-.227-.148-.62-.044-1.142l1.059-5.476a1.085,1.085,0,0,0-1.066-1.291H20.04a.611.611,0,0,0-.608.542,3.5,3.5,0,0,0-2.712-.98c-3.494,0-6.232,3.008-6.232,6.847,0,2.953,1.663,4.787,4.341,4.787a4.551,4.551,0,0,0,3.39-1.733c.43,1.542,1.837,1.542,3.2,1.542,4.255,0,6.8-2.491,6.8-6.665C28.212,10.047,23.5,5.788,17,5.788Zm-.98,13.764a1.62,1.62,0,0,1-1.631-1.843c0-2.031,1.376-3.289,2.651-3.289,1.008,0,1.609.689,1.609,1.843A3.12,3.12,0,0,1,16.02,19.552Z" fill="#2ecc71"/>
</svg>
