<svg xmlns="http://www.w3.org/2000/svg" width="33" height="33" viewBox="0 0 33 33">
  <path id="Subtraction_2" data-name="Subtraction 2" d="M16.5,33A16.5,16.5,0,0,1,4.833,4.833,16.5,16.5,0,0,1,28.168,28.168,16.393,16.393,0,0,1,16.5,33ZM17,6.108a8.178,8.178,0,0,0-8.169,8.168c0,2.707.772,3.806,4.48,9.089.82,1.168,1.747,2.489,2.849,4.087a1.022,1.022,0,0,0,1.679,0c1.1-1.6,2.031-2.921,2.849-4.087,3.708-5.283,4.479-6.382,4.479-9.089A8.178,8.178,0,0,0,17,6.108Zm0,11.572a3.4,3.4,0,1,1,3.4-3.4A3.408,3.408,0,0,1,17,17.681Z" fill="#2ecc71"/>
</svg>
