<svg xmlns="http://www.w3.org/2000/svg" xmlns:xlink="http://www.w3.org/1999/xlink" width="1102.573" height="1081.001" viewBox="0 0 1102.573 1081.001">
  <defs>
    <linearGradient id="linear-gradient" x1="0.879" y1="0.173" x2="0.193" y2="0.836" gradientUnits="objectBoundingBox">
      <stop offset="0" stop-color="#2ecc71"/>
      <stop offset="1" stop-color="#1ba255"/>
    </linearGradient>
  </defs>
  <path id="Subtraction_17" data-name="Subtraction 17" d="M3629.94,1272.5H2619.063c-5.2-6.069-10.017-12.276-14.314-18.448a195.951,195.951,0,0,1-11.607-18.808,170.069,170.069,0,0,1-8.885-19.193,154.386,154.386,0,0,1-6.146-19.6,148.278,148.278,0,0,1-3.388-20.035,151.156,151.156,0,0,1-.615-20.492,163.606,163.606,0,0,1,2.177-20.974,191.931,191.931,0,0,1,18.664-55.594,157.478,157.478,0,0,1,41.939-50.7,180.651,180.651,0,0,1,27.169-17.731,226.5,226.5,0,0,1,30.575-13.413,301.222,301.222,0,0,1,33.435-9.667c21.6-4.973,45.563-8.37,73.268-10.387,55.59-4.047,91.328-18.042,112.469-44.043a91.151,91.151,0,0,0,7.5-10.731,99.711,99.711,0,0,0,6.141-12.136,128.117,128.117,0,0,0,8.147-28.768,203.927,203.927,0,0,0,2.528-35.225,344.218,344.218,0,0,0-3.218-42.239c-1.512-11.323-3.773-23.5-7.115-38.327-2.948-13.079-6.259-26.112-9.763-39.91l-.013-.053L2918,726l0-.007c-6.862-27.014-13.957-54.947-17.917-82.488a289.906,289.906,0,0,1-3.207-41.02c-.011-6.907.294-13.687.908-20.151a177.735,177.735,0,0,1,2.99-19.8,157.691,157.691,0,0,1,5.38-19.361,148.9,148.9,0,0,1,8.076-18.838,151.064,151.064,0,0,1,11.077-18.231,164.877,164.877,0,0,1,14.385-17.537,192.1,192.1,0,0,1,18-16.759,235.973,235.973,0,0,1,21.921-15.9,300.315,300.315,0,0,1,26.148-14.947c9.524-4.851,19.847-9.532,30.682-13.914,70.947-28.7,118.2-70.505,140.449-124.261a189.311,189.311,0,0,0,13.542-56.232,218.149,218.149,0,0,0-1.359-48.447c-.3-2.183-.641-4.406-1.01-6.607h396.31l.041.5h92.157V1272H3629.94v.5Z" transform="translate(-2574 -191.5)" fill="url(#linear-gradient)"/>
</svg>
